<mxfile host="65bd71144e">
    <diagram id="HIP3nbAZw_EuaXWnEj3U" name="Page-1">
        <mxGraphModel dx="626" dy="525" grid="1" gridSize="10" guides="1" tooltips="1" connect="1" arrows="1" fold="1" page="1" pageScale="1" pageWidth="850" pageHeight="1100" math="0" shadow="0">
            <root>
                <mxCell id="0"/>
                <mxCell id="1" parent="0"/>
                <mxCell id="7" value="http://ics2o.mths.ca" style="swimlane;whiteSpace=wrap;html=1;" parent="1" vertex="1">
                    <mxGeometry x="100" y="60" width="760" height="480" as="geometry"/>
                </mxCell>
                <mxCell id="8" value="&lt;span style=&quot;&quot;&gt;&lt;/span&gt;&lt;font style=&quot;font-size: 19px;&quot;&gt;&amp;nbsp; &amp;nbsp; Arithmetic Series Formula calculator&lt;/font&gt;" style="rounded=0;whiteSpace=wrap;html=1;align=left;" vertex="1" parent="7">
                    <mxGeometry y="20" width="760" height="50" as="geometry"/>
                </mxCell>
                <mxCell id="9" value="&lt;font color=&quot;#000000&quot;&gt;Computer will calculate the formula&lt;/font&gt;" style="text;html=1;strokeColor=none;fillColor=none;align=center;verticalAlign=middle;whiteSpace=wrap;rounded=0;fontSize=19;" vertex="1" parent="7">
                    <mxGeometry x="10" y="90" width="310" height="30" as="geometry"/>
                </mxCell>
                <mxCell id="10" value="formula image" style="whiteSpace=wrap;html=1;aspect=fixed;fontSize=19;" vertex="1" parent="7">
                    <mxGeometry x="450" y="110" width="200" height="200" as="geometry"/>
                </mxCell>
                <mxCell id="11" value="&lt;font color=&quot;#000000&quot;&gt;input N here&lt;/font&gt;" style="rounded=0;whiteSpace=wrap;html=1;fontSize=19;fillColor=none;" vertex="1" parent="7">
                    <mxGeometry x="20" y="150" width="190" height="40" as="geometry"/>
                </mxCell>
                <mxCell id="12" value="calculate" style="rounded=1;whiteSpace=wrap;html=1;fontSize=19;fontColor=#000000;fillColor=none;" vertex="1" parent="7">
                    <mxGeometry x="220" y="150" width="80" height="40" as="geometry"/>
                </mxCell>
                <mxCell id="13" value="Answer" style="rounded=1;whiteSpace=wrap;html=1;fontSize=19;fontColor=#000000;fillColor=none;" vertex="1" parent="7">
                    <mxGeometry x="10" y="210" width="300" height="30" as="geometry"/>
                </mxCell>
            </root>
        </mxGraphModel>
    </diagram>
</mxfile>